<svg width="194" height="194" viewBox="0 0 194 194" fill="none" xmlns="http://www.w3.org/2000/svg">
<circle cx="97" cy="97" r="97" fill="#1C1C1C"/>
<path d="M22.4496 115.453C22.7055 116.476 22.8334 117.755 22.8334 119.29C22.8334 120.761 22.7055 122.041 22.4496 123.128H14.7745C14.5187 122.041 14.3908 120.761 14.3908 119.29C14.3908 117.755 14.5187 116.476 14.7745 115.453H9.97761C9.72177 114.366 9.59386 113.086 9.59386 111.615C9.59386 110.08 9.72177 108.801 9.97761 107.778H5.18068C4.92485 106.69 4.79693 105.411 4.79693 103.94C4.79693 102.405 4.92485 101.126 5.18068 100.103H0.383754C0.127918 99.0154 0 97.7362 0 96.2651C0 94.7301 0.127918 93.4509 0.383754 92.4276H5.18068C4.92485 91.3403 4.79693 90.0611 4.79693 88.5901C4.79693 87.055 4.92485 85.7759 5.18068 84.7525H9.97761C9.72177 83.6652 9.59386 82.386 9.59386 80.915C9.59386 79.38 9.72177 78.1008 9.97761 77.0774H14.7745C14.5187 75.9901 14.3908 74.7109 14.3908 73.2399C14.3908 71.7049 14.5187 70.4257 14.7745 69.4024H22.4496C22.7055 70.4257 22.8334 71.7049 22.8334 73.2399C22.8334 74.7109 22.7055 75.9901 22.4496 77.0774H17.6527C17.9085 78.1008 18.0365 79.38 18.0365 80.915C18.0365 82.386 17.9085 83.6652 17.6527 84.7525H12.8558C13.1116 85.7759 13.2395 87.055 13.2395 88.5901C13.2395 90.0611 13.1116 91.3403 12.8558 92.4276H8.05884C8.31468 93.4509 8.44259 94.7301 8.44259 96.2651C8.44259 97.7362 8.31468 99.0154 8.05884 100.103H12.8558C13.1116 101.126 13.2395 102.405 13.2395 103.94C13.2395 105.411 13.1116 106.69 12.8558 107.778H17.6527C17.9085 108.801 18.0365 110.08 18.0365 111.615C18.0365 113.086 17.9085 114.366 17.6527 115.453H22.4496Z" fill="#70DA1C"/>
<path d="M66.7477 77.0774C67.0036 78.1008 67.1315 79.38 67.1315 80.915C67.1315 82.386 67.0036 83.6652 66.7477 84.7525C67.0036 85.7759 67.1315 87.055 67.1315 88.5901C67.1315 90.0611 67.0036 91.3403 66.7477 92.4276C67.0036 93.4509 67.1315 94.7301 67.1315 96.2651C67.1315 97.7362 67.0036 99.0154 66.7477 100.103C67.0036 101.126 67.1315 102.405 67.1315 103.94C67.1315 105.411 67.0036 106.69 66.7477 107.778C67.0036 108.801 67.1315 110.08 67.1315 111.615C67.1315 113.086 67.0036 114.366 66.7477 115.453C67.0036 116.476 67.1315 117.755 67.1315 119.29C67.1315 120.761 67.0036 122.041 66.7477 123.128H59.0726C58.8168 122.041 58.6889 120.761 58.6889 119.29C58.6889 117.755 58.8168 116.476 59.0726 115.453H56.1945C55.9386 114.366 55.8107 113.086 55.8107 111.615C55.8107 110.08 55.9386 108.801 56.1945 107.778H59.0726C58.8168 106.69 58.6889 105.411 58.6889 103.94C58.6889 102.405 58.8168 101.126 59.0726 100.103H56.1945C55.9386 99.0154 55.8107 97.7362 55.8107 96.2651C55.8107 94.7301 55.9386 93.4509 56.1945 92.4276H59.0726C58.8168 91.3403 58.6889 90.0611 58.6889 88.5901C58.6889 87.055 58.8168 85.7759 59.0726 84.7525C58.8168 83.6652 58.6889 82.386 58.6889 80.915C58.6889 79.38 58.8168 78.1008 59.0726 77.0774C58.8168 75.9901 58.6889 74.7109 58.6889 73.2399C58.6889 71.7049 58.8168 70.4257 59.0726 69.4024H66.7477C67.0036 70.4257 67.1315 71.7049 67.1315 73.2399C67.1315 74.7109 67.0036 75.9901 66.7477 77.0774ZM54.6595 88.5901C54.6595 90.0611 54.5316 91.3403 54.2757 92.4276H44.6819C44.9377 93.4509 45.0656 94.7301 45.0656 96.2651C45.0656 97.7362 44.9377 99.0154 44.6819 100.103H41.8037C42.0595 101.126 42.1875 102.405 42.1875 103.94C42.1875 105.411 42.0595 106.69 41.8037 107.778H44.6819C44.9377 108.801 45.0656 110.08 45.0656 111.615C45.0656 113.086 44.9377 114.366 44.6819 115.453H54.2757C54.5316 116.476 54.6595 117.755 54.6595 119.29C54.6595 120.761 54.5316 122.041 54.2757 123.128H43.7225C43.4666 122.041 43.3387 120.761 43.3387 119.29C43.3387 117.755 43.4666 116.476 43.7225 115.453H38.9256C38.6697 114.366 38.5418 113.086 38.5418 111.615C38.5418 110.08 38.6697 108.801 38.9256 107.778H36.0474C35.7916 106.69 35.6636 105.411 35.6636 103.94C35.6636 102.405 35.7916 101.126 36.0474 100.103H38.9256C38.6697 99.0154 38.5418 97.7362 38.5418 96.2651C38.5418 94.7301 38.6697 93.4509 38.9256 92.4276H43.7225C43.4666 91.3403 43.3387 90.0611 43.3387 88.5901C43.3387 87.055 43.4666 85.7759 43.7225 84.7525H54.2757C54.5316 85.7759 54.6595 87.055 54.6595 88.5901Z" fill="#F7F7F7"/>
<path d="M110.864 88.5901C110.864 90.0611 110.737 91.3403 110.481 92.4276H107.603C107.858 93.4509 107.986 94.7301 107.986 96.2651C107.986 97.7362 107.858 99.0154 107.603 100.103H104.724C104.98 101.126 105.108 102.405 105.108 103.94C105.108 105.411 104.98 106.69 104.724 107.778H102.806C103.061 108.801 103.189 110.08 103.189 111.615C103.189 113.086 103.061 114.366 102.806 115.453H98.9681C99.2239 116.476 99.3518 117.755 99.3518 119.29C99.3518 120.761 99.2239 122.041 98.9681 123.128H91.293C91.0372 122.041 90.9092 120.761 90.9092 119.29C90.9092 117.755 91.0372 116.476 91.293 115.453H87.4555C87.1996 114.366 87.0717 113.086 87.0717 111.615C87.0717 110.08 87.1996 108.801 87.4555 107.778H85.5367C85.2809 106.69 85.1529 105.411 85.1529 103.94C85.1529 102.405 85.2809 101.126 85.5367 100.103H82.6585C82.4027 99.0154 82.2748 97.7362 82.2748 96.2651C82.2748 94.7301 82.4027 93.4509 82.6585 92.4276H79.7804C79.5246 91.3403 79.3966 90.0611 79.3966 88.5901C79.3966 87.055 79.5246 85.7759 79.7804 84.7525H87.4555C87.7113 85.7759 87.8392 87.055 87.8392 88.5901C87.8392 90.0611 87.7113 91.3403 87.4555 92.4276H90.3336C90.5895 93.4509 90.7174 94.7301 90.7174 96.2651C90.7174 97.7362 90.5895 99.0154 90.3336 100.103H93.2118C93.4676 101.126 93.5956 102.405 93.5956 103.94C93.5956 105.411 93.4676 106.69 93.2118 107.778H97.0493C96.7935 106.69 96.6656 105.411 96.6656 103.94C96.6656 102.405 96.7935 101.126 97.0493 100.103H99.9275C99.6717 99.0154 99.5437 97.7362 99.5437 96.2651C99.5437 94.7301 99.6717 93.4509 99.9275 92.4276H102.806C102.55 91.3403 102.422 90.0611 102.422 88.5901C102.422 87.055 102.55 85.7759 102.806 84.7525H110.481C110.737 85.7759 110.864 87.055 110.864 88.5901Z" fill="#F7F7F7"/>
<path d="M154.074 65.5648C154.074 67.0359 153.946 68.315 153.691 69.4024H150.812C151.068 70.4257 151.196 71.7049 151.196 73.2399C151.196 74.7109 151.068 75.9901 150.812 77.0774H147.934C148.19 78.1008 148.318 79.38 148.318 80.915C148.318 82.386 148.19 83.6652 147.934 84.7525H145.056C145.312 85.7759 145.44 87.055 145.44 88.5901C145.44 90.0611 145.312 91.3403 145.056 92.4276H142.178C142.434 93.4509 142.562 94.7301 142.562 96.2651C142.562 97.7362 142.434 99.0154 142.178 100.103H139.3C139.556 101.126 139.683 102.405 139.683 103.94C139.683 105.411 139.556 106.69 139.3 107.778H136.422C136.677 108.801 136.805 110.08 136.805 111.615C136.805 113.086 136.677 114.366 136.422 115.453H133.544C133.799 116.476 133.927 117.755 133.927 119.29C133.927 120.761 133.799 122.041 133.544 123.128H130.665C130.921 124.151 131.049 125.43 131.049 126.965C131.049 128.437 130.921 129.716 130.665 130.803H122.99C122.734 129.716 122.606 128.437 122.606 126.965C122.606 125.43 122.734 124.151 122.99 123.128H125.868C125.613 122.041 125.485 120.761 125.485 119.29C125.485 117.755 125.613 116.476 125.868 115.453H128.747C128.491 114.366 128.363 113.086 128.363 111.615C128.363 110.08 128.491 108.801 128.747 107.778H131.625C131.369 106.69 131.241 105.411 131.241 103.94C131.241 102.405 131.369 101.126 131.625 100.103H134.503C134.247 99.0154 134.119 97.7362 134.119 96.2651C134.119 94.7301 134.247 93.4509 134.503 92.4276H137.381C137.125 91.3403 136.997 90.0611 136.997 88.5901C136.997 87.055 137.125 85.7759 137.381 84.7525H140.259C140.003 83.6652 139.875 82.386 139.875 80.915C139.875 79.38 140.003 78.1008 140.259 77.0774H143.137C142.882 75.9901 142.754 74.7109 142.754 73.2399C142.754 71.7049 142.882 70.4257 143.137 69.4024H146.015C145.76 68.315 145.632 67.0359 145.632 65.5648C145.632 64.0298 145.76 62.7506 146.015 61.7273H153.691C153.946 62.7506 154.074 64.0298 154.074 65.5648Z" fill="#70DA1C"/>
<path d="M192.967 96.2651C192.967 97.7362 192.839 99.0154 192.583 100.103H187.786C188.042 101.126 188.17 102.405 188.17 103.94C188.17 105.411 188.042 106.69 187.786 107.778H182.989C183.245 108.801 183.373 110.08 183.373 111.615C183.373 113.086 183.245 114.366 182.989 115.453H178.192C178.448 116.476 178.576 117.755 178.576 119.29C178.576 120.761 178.448 122.041 178.192 123.128H170.517C170.262 122.041 170.134 120.761 170.134 119.29C170.134 117.755 170.262 116.476 170.517 115.453H175.314C175.058 114.366 174.93 113.086 174.93 111.615C174.93 110.08 175.058 108.801 175.314 107.778H180.111C179.855 106.69 179.727 105.411 179.727 103.94C179.727 102.405 179.855 101.126 180.111 100.103H184.908C184.652 99.0154 184.524 97.7362 184.524 96.2651C184.524 94.7301 184.652 93.4509 184.908 92.4276H180.111C179.855 91.3403 179.727 90.0611 179.727 88.5901C179.727 87.055 179.855 85.7759 180.111 84.7525H175.314C175.058 83.6652 174.93 82.386 174.93 80.915C174.93 79.38 175.058 78.1008 175.314 77.0774H170.517C170.262 75.9901 170.134 74.7109 170.134 73.2399C170.134 71.7049 170.262 70.4257 170.517 69.4024H178.192C178.448 70.4257 178.576 71.7049 178.576 73.2399C178.576 74.7109 178.448 75.9901 178.192 77.0774H182.989C183.245 78.1008 183.373 79.38 183.373 80.915C183.373 82.386 183.245 83.6652 182.989 84.7525H187.786C188.042 85.7759 188.17 87.055 188.17 88.5901C188.17 90.0611 188.042 91.3403 187.786 92.4276H192.583C192.839 93.4509 192.967 94.7301 192.967 96.2651Z" fill="#70DA1C"/>
</svg>
